<svg width="32" height="32" viewBox="0 0 32 32" fill="none" xmlns="http://www.w3.org/2000/svg">
<rect width="32" height="32" fill="#F5F5F5"/>
<path d="M-1900 -1407C-1900 -1517.46 -1810.46 -1607 -1700 -1607H1595C1705.46 -1607 1795 -1517.46 1795 -1407V6210C1795 6320.46 1705.46 6410 1595 6410H-1700C-1810.46 6410 -1900 6320.46 -1900 6210V-1407Z" fill="#478BF9" fill-opacity="0.01"/>
<path d="M-1700 -1587H1595V-1627H-1700V-1587ZM1775 -1407V6210H1815V-1407H1775ZM1595 6390H-1700V6430H1595V6390ZM-1880 6210V-1407H-1920V6210H-1880ZM-1700 6390C-1799.41 6390 -1880 6309.41 -1880 6210H-1920C-1920 6331.5 -1821.5 6430 -1700 6430V6390ZM1775 6210C1775 6309.41 1694.41 6390 1595 6390V6430C1716.5 6430 1815 6331.5 1815 6210H1775ZM1595 -1587C1694.41 -1587 1775 -1506.41 1775 -1407H1815C1815 -1528.5 1716.5 -1627 1595 -1627V-1587ZM-1700 -1627C-1821.5 -1627 -1920 -1528.5 -1920 -1407H-1880C-1880 -1506.41 -1799.41 -1587 -1700 -1587V-1627Z" fill="#478BF9"/>
<g clip-path="url(#clip0_0_1)">
<rect width="1920" height="1265" transform="translate(-1468 -1212)" fill="#110A1D"/>
<mask id="path-3-inside-1_0_1" fill="white">
<path d="M-1468 -10C-1468 -45.3462 -1439.35 -74 -1404 -74H388C423.346 -74 452 -45.3462 452 -10V56H-1468V-10Z"/>
</mask>
<path d="M-1468 -10C-1468 -45.3462 -1439.35 -74 -1404 -74H388C423.346 -74 452 -45.3462 452 -10V56H-1468V-10Z" fill="#1E1231"/>
<path d="M-1472 -10C-1472 -47.5554 -1441.56 -78 -1404 -78H388C425.555 -78 456 -47.5554 456 -10H448C448 -43.1371 421.137 -70 388 -70H-1404C-1437.14 -70 -1464 -43.1371 -1464 -10H-1472ZM452 56H-1468H452ZM-1472 56V-10C-1472 -47.5554 -1441.56 -78 -1404 -78V-70C-1437.14 -70 -1464 -43.1371 -1464 -10V56H-1472ZM388 -78C425.555 -78 456 -47.5554 456 -10V56H448V-10C448 -43.1371 421.137 -70 388 -70V-78Z" fill="#478BF9" mask="url(#path-3-inside-1_0_1)"/>
<g clip-path="url(#clip1_0_1)">
<path fill-rule="evenodd" clip-rule="evenodd" d="M0 16C0 24.8202 7.17648 32 16 32C24.8202 32 32 24.8202 32 16C32 7.17982 24.8202 0 16 0C7.17984 0 0 7.17982 0 16ZM5.94191 4.96936C8.59784 2.54552 12.1292 1.06554 16 1.06554C19.8696 1.06554 23.4 2.54462 26.0557 4.96715L24.8681 6.1547C22.5199 4.03823 19.4105 2.75 16 2.75C12.5883 2.75 9.47794 4.03912 7.12944 6.15689L5.94191 4.96936ZM4.96751 5.94395C2.54476 8.59964 1.06554 12.1302 1.06554 16C1.06554 19.8694 2.54451 23.3997 4.96688 26.0553L6.15441 24.8678C4.03812 22.5196 2.75 19.4104 2.75 16C2.75 12.5893 4.03837 9.47974 6.15505 7.13149L4.96751 5.94395ZM5.94122 27.03C8.59723 29.4542 12.1289 30.9344 16 30.9344C19.8692 30.9344 23.3992 29.4557 26.0548 27.0337L24.8672 25.8461C22.5191 27.9621 19.4101 29.25 16 29.25C12.5879 29.25 9.47731 27.9606 7.12874 25.8425L5.94122 27.03ZM30.9345 16C30.9345 19.8714 29.454 23.4033 27.0295 26.0593L25.842 24.8718C27.9604 22.5232 29.25 19.4123 29.25 16C29.25 12.5881 27.9607 9.47761 25.8428 7.12907L27.0303 5.94154C29.4543 8.5975 30.9345 12.129 30.9345 16Z" fill="#478BF9"/>
<path d="M21.3116 13.5386V13.9128C21.3116 17.6814 18.5585 22.0001 13.5206 22.0001C12.0334 22.0034 10.5778 21.5546 9.33325 20.709C9.54939 20.7394 9.76741 20.7532 9.9855 20.7501C11.2183 20.7536 12.4164 20.3266 13.3873 19.5376C12.8146 19.5288 12.2591 19.3328 11.7998 18.9774C11.3404 18.622 11.0007 18.1253 10.8287 17.5579C10.9993 17.5954 11.1733 17.6143 11.3477 17.614C11.5912 17.6141 11.8336 17.5801 12.0684 17.513C11.4481 17.3846 10.89 17.0363 10.4896 16.5277C10.0893 16.0191 9.87161 15.3818 9.87379 14.7249V14.6875C10.2533 14.9077 10.6788 15.0284 11.1134 15.0393C10.5349 14.6439 10.1236 14.0341 9.96351 13.3343C9.80344 12.6346 9.90669 11.8978 10.2522 11.2745C10.9406 12.1537 11.7994 12.8727 12.7729 13.3846C13.7464 13.8966 14.8128 14.19 15.9026 14.2459C15.8487 14.0335 15.8232 13.8144 15.8269 13.5947C15.8067 13.0143 15.9591 12.4414 16.2636 11.9541C16.5681 11.4669 17.0097 11.0889 17.5285 10.8717C18.0472 10.6545 18.6178 10.6086 19.1626 10.7403C19.7074 10.872 20.1998 11.1748 20.5729 11.6075C21.1861 11.479 21.7744 11.245 22.3134 10.9152C22.109 11.5856 21.6742 12.1544 21.0918 12.5132C21.6358 12.4353 22.1662 12.2765 22.6666 12.0417C22.3039 12.6201 21.8451 13.127 21.3116 13.5386Z" fill="#110A1D"/>
</g>
<g opacity="0.7" filter="url(#filter0_f_0_1)">
<circle cx="331" cy="-243" r="287" fill="url(#paint0_linear_0_1)"/>
</g>
</g>
<defs>
<filter id="filter0_f_0_1" x="-606" y="-1180" width="1874" height="1874" filterUnits="userSpaceOnUse" color-interpolation-filters="sRGB">
<feFlood flood-opacity="0" result="BackgroundImageFix"/>
<feBlend mode="normal" in="SourceGraphic" in2="BackgroundImageFix" result="shape"/>
<feGaussianBlur stdDeviation="325" result="effect1_foregroundBlur_0_1"/>
</filter>
<linearGradient id="paint0_linear_0_1" x1="618" y1="-530" x2="-57.2941" y2="-361.177" gradientUnits="userSpaceOnUse">
<stop stop-color="#478BF9"/>
<stop offset="1" stop-color="#9DADF2"/>
</linearGradient>
<clipPath id="clip0_0_1">
<rect width="1920" height="1265" fill="white" transform="translate(-1468 -1212)"/>
</clipPath>
<clipPath id="clip1_0_1">
<rect width="32" height="32" fill="white"/>
</clipPath>
</defs>
</svg>
